<?xml version="1.0" encoding="utf-8"?>
<!-- Generator: Adobe Illustrator 16.0.0, SVG Export Plug-In . SVG Version: 6.00 Build 0)  -->
<!DOCTYPE svg PUBLIC "-//W3C//DTD SVG 1.1//EN" "http://www.w3.org/Graphics/SVG/1.1/DTD/svg11.dtd">
<svg version="1.1" id="Layer_1" xmlns="http://www.w3.org/2000/svg" xmlns:xlink="http://www.w3.org/1999/xlink" x="0px" y="0px"
	 width="512px" height="512px" viewBox="0 0 512 512" enable-background="new 0 0 512 512" xml:space="preserve">
<g id="mango">
	<g>
		<path fill="#A0D468" d="M110.706,168.195c3.969-31.039-23.507-98.193-30.593-99.099c-7.094-0.906-50.546,57.202-54.507,88.248
			c-3.961,31.038,11.883,58.631,35.382,61.631C84.488,221.967,106.753,199.241,110.706,168.195z"/>
	</g>
	<path fill="#434A54" d="M13.481,187.202l-0.008,0.016c-0.891-0.25-1.828-0.391-2.805-0.391c-5.891,0-10.663,4.773-10.663,10.664
		c0,4.922,3.327,9.047,7.851,10.281v0.016c0.32,0.086,32.734,8.96,70.733,21.194l6.531-20.312
		C46.676,196.304,13.81,187.296,13.481,187.202z"/>
	<g>
		<path fill="#E9573F" d="M368.841,192.874c-53.374,1.289-117.403-69.358-175.965-69.381C94.8,123.454,55.59,221.193,68.785,290.075
			c13.195,68.857,66.452,113.639,181.871,109.967c126.763-4.047,227.776-143.857,218.026-168.294
			C458.917,207.312,400.059,192.116,368.841,192.874z"/>
	</g>
	<g opacity="0.1">
		<path d="M466.292,227.287c-17.327,44.835-107.028,147.958-215.636,151.427C135.237,382.386,81.98,337.605,68.785,268.731
			c-1.016-5.289-1.719-10.758-2.109-16.335c-0.883,12.983-0.172,25.757,2.109,37.679c13.195,68.857,66.452,113.639,181.871,109.967
			c126.763-4.047,227.776-143.857,218.026-168.294C468.058,230.225,467.261,228.74,466.292,227.287z"/>
	</g>
	<g>
		<path fill="#FC6E51" d="M383.997,442.915c70.687,0,127.997-57.295,127.997-127.997H256
			C256,385.62,313.311,442.915,383.997,442.915z"/>
	</g>
	<g>
		<path fill="#FFCE54" d="M383.997,432.243c64.796,0,117.325-52.529,117.325-117.325H266.664
			C266.664,379.714,319.186,432.243,383.997,432.243z"/>
	</g>
	<g opacity="0.1">
		<path d="M458.651,314.918c0,0,0,0,0,0.016c0,5.875,4.781,10.656,10.672,10.656s10.672-4.781,10.672-10.656
			c0-0.016,0-0.016,0-0.016H458.651z"/>
		<path d="M415.996,314.934c0,5.875,4.781,10.656,10.656,10.656c5.906,0,10.672-4.781,10.672-10.656c0-0.016,0-0.016,0-0.016
			h-21.328C415.996,314.918,415.996,314.918,415.996,314.934z"/>
		<path d="M373.325,314.934c0,5.875,4.781,10.656,10.672,10.656c5.89,0,10.655-4.781,10.655-10.656c0-0.016,0-0.016,0-0.016h-21.327
			C373.325,314.918,373.325,314.918,373.325,314.934z"/>
		<path d="M330.654,314.934c0,5.875,4.781,10.656,10.672,10.656s10.672-4.781,10.672-10.656c0-0.016,0-0.016,0-0.016h-21.344
			C330.654,314.918,330.654,314.918,330.654,314.934z"/>
		<path d="M287.999,314.934c0,5.875,4.781,10.656,10.655,10.656c5.906,0,10.672-4.781,10.672-10.656c0-0.016,0-0.016,0-0.016
			h-21.327C287.999,314.918,287.999,314.918,287.999,314.934z"/>
	</g>
</g>
</svg>
