<?xml version="1.0" encoding="utf-8"?>
<!-- Generator: Adobe Illustrator 16.0.0, SVG Export Plug-In . SVG Version: 6.00 Build 0)  -->
<!DOCTYPE svg PUBLIC "-//W3C//DTD SVG 1.1//EN" "http://www.w3.org/Graphics/SVG/1.1/DTD/svg11.dtd">
<svg version="1.1" id="Layer_1" xmlns="http://www.w3.org/2000/svg" xmlns:xlink="http://www.w3.org/1999/xlink" x="0px" y="0px"
	 width="512px" height="512px" viewBox="0 0 512 512" enable-background="new 0 0 512 512" xml:space="preserve">
<g id="meat_steak">
	<g>
		<path fill="#DA4453" d="M511.9,220.219l-27.188-20.015c-43.107-55.968-132.09-75.42-228.713-8.234
			c-4.578,3.172-9.555,5.906-14.867,8.234L0.006,201.36c0,0,0,61.701,0,62.826c0,90.264,63.998,162.466,248.58,162.466
			c163.098,0,263.408-36.093,263.408-144.419C511.994,274.951,511.9,220.219,511.9,220.219z"/>
	</g>
	<path opacity="0.1" d="M426.652,401.637v-78.53h-21.328v85.905C412.793,406.777,419.902,404.34,426.652,401.637z"/>
	<path opacity="0.1" d="M362.654,418.651v-75.107h-21.328v78.17C348.654,420.823,355.748,419.808,362.654,418.651z"/>
	<path opacity="0.1" d="M298.654,425.37v-73.827h-21.327v74.718C284.593,426.042,291.687,425.761,298.654,425.37z"/>
	<path opacity="0.1" d="M234.664,426.511v-74.968h-21.335v74.171C220.243,426.089,227.353,426.37,234.664,426.511z"/>
	<path opacity="0.1" d="M170.666,421.573v-74.858H149.33v71.218C156.174,419.292,163.275,420.511,170.666,421.573z"/>
	<path opacity="0.1" d="M106.667,406.277v-83.171H85.332v74.312C92.003,400.605,99.104,403.574,106.667,406.277z"/>
	<g>
		<path fill="#ED5564" d="M256,127.986C181.369,179.86,0.006,109.94,0.006,200.204c0,90.263,63.998,162.48,248.58,162.48
			c163.098,0,263.408-36.108,263.408-144.434C511.994,109.94,391.527,33.77,256,127.986z"/>
	</g>
	<path fill="#CCD1D9" d="M106.667,266.654c-17.343,0-31.999-9.765-31.999-21.327c0-11.562,14.656-21.328,31.999-21.328
		c17.344,0,31.999,9.766,31.999,21.328C138.666,256.889,124.011,266.654,106.667,266.654z"/>
	<path fill="#E6E9ED" d="M106.667,213.328c-23.562,0-42.663,14.328-42.663,32c0,17.67,19.102,31.999,42.663,31.999
		c23.562,0,42.663-14.328,42.663-31.999C149.33,227.656,130.229,213.328,106.667,213.328z M106.667,255.999
		c-13.234,0-21.335-6.905-21.335-10.671s8.101-10.672,21.335-10.672s21.336,6.906,21.336,10.672S119.901,255.999,106.667,255.999z"
		/>
	<path fill="#F5F7FA" d="M140.463,352.059c30.219,6.859,66.038,10.625,108.123,10.625c17.781,0,34.819-0.438,51.053-1.344
		l-60.076-81.592L140.463,352.059z"/>
	<path fill="#E6E9ED" d="M232.414,231.093c-13.187-36.968-20.241-70.326-23.085-85.686c-6.844,1.219-13.945,2.094-21.203,2.75
		c2.812,15.531,10.016,50.265,24.062,89.732c4.82,13.562,10.023,26.436,15.562,38.577c-10.352,14.391-30.758,30.609-59.491,47.218
		c-22.195,12.828-42.312,21.766-46.413,23.546c10.336,3.031,21.421,5.656,33.288,7.828c24.703-12.53,61.28-33.577,82.959-57.592
		c4.039,7.609,8.227,14.874,12.555,21.749c10.391,16.484,21.633,30.796,33.601,42.827c10.344-0.375,20.405-0.938,30.124-1.672
		C273.562,328.356,247.461,273.295,232.414,231.093z"/>
</g>
</svg>
