<?xml version="1.0" encoding="utf-8"?>
<!-- Generator: Adobe Illustrator 16.0.0, SVG Export Plug-In . SVG Version: 6.00 Build 0)  -->
<!DOCTYPE svg PUBLIC "-//W3C//DTD SVG 1.1//EN" "http://www.w3.org/Graphics/SVG/1.1/DTD/svg11.dtd">
<svg version="1.1" id="Layer_1" xmlns="http://www.w3.org/2000/svg" xmlns:xlink="http://www.w3.org/1999/xlink" x="0px" y="0px"
	 width="512px" height="512px" viewBox="0 0 512 512" enable-background="new 0 0 512 512" xml:space="preserve">
<g id="onion">
	<g>
		<path fill="#A0D468" d="M298.67,21.349c-5.889,0-10.67,4.765-10.67,10.656v222.667h21.326V32.005
			C309.326,26.114,304.561,21.349,298.67,21.349z"/>
		<path fill="#A0D468" d="M213.329,85.347c-5.891,0-10.656,4.766-10.656,10.656V318.67h21.328V96.003
			C224.001,90.113,219.22,85.347,213.329,85.347z"/>
	</g>
	<g>
		<polygon fill="#8CC153" points="261.328,338.764 314.67,338.764 314.67,99.566 261.328,64.004 		"/>
	</g>
	<g>
		<polygon fill="#8CC153" points="250.672,381.42 197.33,381.42 197.33,142.237 250.672,106.675 		"/>
	</g>
	<path fill="#F6BB42" d="M330.67,245.344c0,5.891-4.781,10.656-10.672,10.656s-10.672-4.765-10.672-10.656
		s4.781-10.672,10.672-10.672S330.67,239.454,330.67,245.344z"/>
	<path fill="#F6BB42" d="M202.673,245.344c0,5.891-4.781,10.656-10.672,10.656s-10.671-4.765-10.671-10.656
		s4.781-10.672,10.671-10.672S202.673,239.454,202.673,245.344z"/>
	<g>
		<polygon fill="#A0D468" points="282.672,274.75 229.329,274.75 229.329,35.567 282.672,0.005 		"/>
	</g>
	<path fill="#F6BB42" d="M288,501.338c0,5.891-4.781,10.656-10.672,10.656s-10.656-4.766-10.656-10.656
		c0-5.889,4.766-10.67,10.656-10.67S288,495.449,288,501.338z"/>
	<path fill="#F6BB42" d="M266.672,501.338c0,5.891-4.781,10.656-10.672,10.656c-5.89,0-10.671-4.766-10.671-10.656
		c0-5.889,4.781-10.67,10.671-10.67C261.891,490.668,266.672,495.449,266.672,501.338z"/>
	<path fill="#F6BB42" d="M245.329,501.338c0,5.891-4.766,10.656-10.656,10.656c-5.89,0-10.671-4.766-10.671-10.656
		c0-5.889,4.781-10.67,10.671-10.67C240.563,490.668,245.329,495.449,245.329,501.338z"/>
	<g>
		<path fill="#FFCE54" d="M405.324,362.67c0,76.576-66.857,138.668-149.324,138.668S106.675,439.246,106.675,362.67
			C106.675,241.344,256,224,256,224S405.324,241.344,405.324,362.67z"/>
	</g>
	<g opacity="0.2">
		<path fill="#FFFFFF" d="M256,224c0,0-3.984,0.469-10.671,1.766c34.171,6.688,138.669,35.406,138.669,136.904
			c0,73.248-61.172,133.232-138.669,138.309c3.531,0.234,7.078,0.359,10.671,0.359c82.467,0,149.324-62.092,149.324-138.668
			C405.324,241.344,256,224,256,224z"/>
	</g>
</g>
</svg>
