<svg xmlns="http://www.w3.org/2000/svg" viewBox="0 0 48 48">
  <title>visa, credit, card, finance</title>
  <g>
    <path d="M46,16H2V32H46ZM17,25a1,1,0,0,1-.293.707l-2,2a.9995.9995,0,0,1-1.414,0l-2-2A1,1,0,0,1,11,25V21a1,1,0,0,1,2,0v3.5859l1,1,1-1V21a1,1,0,0,1,2,0Zm4,2a1,1,0,0,1-2,0V21a1,1,0,0,1,2,0Zm7-4a1,1,0,0,1,1,1v3a1,1,0,0,1-1,1H24a1,1,0,0,1,0-2h3V25H24a1,1,0,0,1-1-1V21a1,1,0,0,1,1-1h4a1,1,0,0,1,0,2H25v1Zm9,4a1,1,0,0,1-2,0V26H33v1a1,1,0,0,1-2,0V21a1,1,0,0,1,1-1h4a1,1,0,0,1,1,1Z" fill="#646464"/>
    <rect x="33" y="22" width="2" height="2" fill="#646464"/>
    <path d="M2,34v.4829A5.5235,5.5235,0,0,0,7.5171,40H40.4829A5.5235,5.5235,0,0,0,46,34.4829V34Z" fill="#646464"/>
    <path d="M46,14v-.4829A5.5235,5.5235,0,0,0,40.4829,8H7.5171A5.5235,5.5235,0,0,0,2,13.5171V14Z" fill="#646464"/>
  </g>
</svg>
